/* XPM */
static char *e05b2522791746f4887ebc164f346816t8nmdpZF7q1de0tU[] = {
/* columns rows colors chars-per-pixel */
"32 32 36 1 ",
"  c #7D6812",
". c #3E1819",
"X c #3D181B",
"o c #3E181B",
"O c #3F191B",
"+ c #421B1A",
"@ c #451E19",
"# c #471F1A",
"$ c #47201A",
"% c #532A19",
"& c #593017",
"* c #4D2826",
"= c #5F3C3B",
"- c #5E3C3C",
"; c #603D3B",
": c #694847",
"> c #6A4847",
", c #6D4C4B",
"< c #6F4E4A",
"1 c #704E4B",
"2 c #866763",
"3 c #91716C",
"4 c #B6800D",
"5 c #B7810D",
"6 c #F0B306",
"7 c #F2B406",
"8 c #F2B506",
"9 c #555082",
"0 c #565082",
"q c #AD928C",
"w c #B49A93",
"e c #B49B94",
"r c #C2A79D",
"t c #CCB5AC",
"y c #EDD8CC",
"u c #FBE9DC",
/* pixels */
"                                ",
"                                ",
"                                ",
"                                ",
"                                ",
"                                ",
"                6               ",
"                77              ",
"                77              ",
"                55              ",
"                %&              ",
"               @$$@             ",
"              ;<+*<             ",
"             owuo2u<o           ",
"             owuetu,o           ",
"             owuuuu,o           ",
"             owuuuu,o           ",
"             owuuuu,o           ",
"             owuuuu,o           ",
"             owuuuu,o           ",
"             oqyyyy>X           ",
"             o3rrrr;o           ",
"              >1<11-            ",
"              ooXXX             ",
"                                ",
"                                ",
"                                ",
"                                ",
"                                ",
"                                ",
"                                ",
"                                "
};
