/* XPM */
static char *c86d8181c0bd4b42feeaec84c3d2349aBIWeKqkyAbvGH0zW[] = {
/* columns rows colors chars-per-pixel */
"32 32 2 1 ",
"  c #7D6812",
". c #816C17",
/* pixels */
"         .          .  .        ",
"   . ..                     ..  ",
".              .          .     ",
".    .     .     .        . .   ",
"     .     . .  .  .          . ",
"   .    .     .                .",
"               .        .   .   ",
".         .      . .            ",
"      .                .  ..    ",
"             ..                 ",
" .    . .                       ",
"         .     .     .        . ",
"             .   .          . . ",
"       ..                  .    ",
"      .      ..          ..   . ",
"  .  .     .   . .  .     .     ",
"         .           .   ...    ",
"     .            .        .    ",
"       .     .     .            ",
".                         .     ",
"            . .    . . .       .",
" .           ..          .      ",
"     .                        . ",
"     .        .       ..    .   ",
"             .  .               ",
".. . . ..      .              . ",
"  .   .                   .     ",
".  .   .                        ",
"    .       .                   ",
"    ..      .    .     .        ",
"           . .    .    . .      ",
"    .         .                 "
};
