/* XPM */
static char *_fe2faebf97249c5ae38f3d350a28f7f9JNlFqMv9Jxn0mS7[] = {
/* columns rows colors chars-per-pixel */
"32 32 6 1 ",
"  c #7D6812",
". c black",
"X c #3A0911",
"o c #811426",
"O c #A11B31",
"+ c white",
/* pixels */
"                                ",
"           XXXXXXX              ",
"          XoOOOOOOX             ",
"         XoOOOXXXXOX            ",
"        XoOOOX....XOX           ",
"        XoOOX......XOX          ",
"       XooOOX......XOX          ",
"      XooooOX.+...+XOX          ",
"      XooXoOX.+...+XOX          ",
"       XXXoOX......XoX          ",
"         XooOX.....XoX          ",
"          XoooX...XoX           ",
"           XXooXXXoX            ",
"          XoooOOOOOoX           ",
"         XoOOOOOOOOOoX          ",
"         XoOOOOOOOOOoX          ",
"         XOOOOOOOOOOOX          ",
"        XoOOOOOOOOOOOX          ",
"        XoOOOOOOoOOOOoX         ",
"       XooOOOOOOooOOOoX         ",
"       XooOOOOOoXoOOoooX        ",
"       XoooOoOooXooOoooX        ",
"       XoXooOooX.XoooooX        ",
"        XXooooX..XooXoX         ",
"          XXooX...XooX          ",
"            XXX  .XXX           ",
"            .      .            ",
"           .       .            ",
"                                ",
"                                ",
"                                ",
"                                "
};
